<svg width="72" height="73" viewBox="0 0 72 73" fill="none" xmlns="http://www.w3.org/2000/svg">
<path d="M64.2857 0.36792H7.71429C3.45536 0.36792 0 3.82328 0 8.08221V64.6536C0 68.9126 3.45536 72.3679 7.71429 72.3679H64.2857C68.5446 72.3679 72 68.9126 72 64.6536V8.08221C72 3.82328 68.5446 0.36792 64.2857 0.36792ZM44.5661 62.034C43.2161 62.2751 42.7179 61.4394 42.7179 60.7483C42.7179 59.8804 42.75 55.4447 42.75 51.8608C42.75 49.3536 41.9143 47.7626 40.9339 46.9268C46.8804 46.2679 53.1482 45.4483 53.1482 35.1786C53.1482 32.2536 52.1036 30.7911 50.4 28.9108C50.6732 28.2197 51.5893 25.3751 50.1268 21.6786C47.8929 20.9876 42.7821 24.5554 42.7821 24.5554C40.6607 23.9608 38.3625 23.6554 36.0964 23.6554C33.8304 23.6554 31.5321 23.9608 29.4107 24.5554C29.4107 24.5554 24.3 20.9876 22.0661 21.6786C20.6036 25.359 21.5036 28.2036 21.7929 28.9108C20.0893 30.7911 19.2857 32.2536 19.2857 35.1786C19.2857 45.4001 25.2804 46.2679 31.2268 46.9268C30.4554 47.6179 29.7643 48.8072 29.5232 50.5108C27.9964 51.2018 24.0911 52.3911 21.7607 48.2768C20.2982 45.7376 17.6625 45.5286 17.6625 45.5286C15.0589 45.4965 17.4857 47.1679 17.4857 47.1679C19.2214 47.9715 20.4429 51.0572 20.4429 51.0572C22.0018 55.8304 29.4589 54.2233 29.4589 54.2233C29.4589 56.4572 29.4911 60.0894 29.4911 60.7483C29.4911 61.4394 29.0089 62.2751 27.6429 62.034C17.0357 58.4822 9.61071 48.3893 9.61071 36.5929C9.61071 21.8393 20.8929 10.6376 35.6464 10.6376C50.4 10.6376 62.3571 21.8393 62.3571 36.5929C62.3732 48.3893 55.1732 58.4983 44.5661 62.034ZM28.8 52.2143C28.4946 52.2786 28.2054 52.1501 28.1732 51.9411C28.1411 51.7001 28.35 51.4911 28.6554 51.4268C28.9607 51.3947 29.25 51.5233 29.2821 51.7322C29.3304 51.9411 29.1214 52.1501 28.8 52.2143ZM27.2732 52.0697C27.2732 52.2786 27.0321 52.4554 26.7107 52.4554C26.3571 52.4876 26.1161 52.3108 26.1161 52.0697C26.1161 51.8608 26.3571 51.684 26.6786 51.684C26.9839 51.6518 27.2732 51.8286 27.2732 52.0697ZM25.0714 51.8929C25.0071 52.1018 24.6857 52.1983 24.4125 52.1018C24.1071 52.0376 23.8982 51.7965 23.9625 51.5876C24.0268 51.3786 24.3482 51.2822 24.6214 51.3465C24.9429 51.4429 25.1518 51.684 25.0714 51.8929ZM23.0946 51.0251C22.95 51.2018 22.6446 51.1697 22.4036 50.9286C22.1625 50.7197 22.0982 50.4143 22.2589 50.2697C22.4036 50.0929 22.7089 50.1251 22.95 50.3661C23.1589 50.5751 23.2393 50.8965 23.0946 51.0251ZM21.6321 49.5626C21.4875 49.659 21.2143 49.5626 21.0375 49.3215C20.8607 49.0804 20.8607 48.8072 21.0375 48.6947C21.2143 48.5501 21.4875 48.6626 21.6321 48.9036C21.8089 49.1447 21.8089 49.434 21.6321 49.5626ZM20.5875 48.0036C20.4429 48.1483 20.2018 48.0679 20.025 47.9072C19.8482 47.6983 19.8161 47.4572 19.9607 47.3447C20.1054 47.2001 20.3464 47.2804 20.5232 47.4411C20.7 47.6501 20.7321 47.8911 20.5875 48.0036ZM19.5107 46.8143C19.4464 46.959 19.2375 46.9911 19.0607 46.8786C18.8518 46.7822 18.7554 46.6054 18.8196 46.4608C18.8839 46.3643 19.0607 46.3161 19.2696 46.3965C19.4786 46.509 19.575 46.6858 19.5107 46.8143Z" fill="#484846"/>
</svg>
