<svg width="72" height="73" viewBox="0 0 72 73" fill="none" xmlns="http://www.w3.org/2000/svg">
<path d="M66.8571 0.36792H5.12679C2.29821 0.36792 0 2.69828 0 5.55899V67.1768C0 70.0376 2.29821 72.3679 5.12679 72.3679H66.8571C69.6857 72.3679 72 70.0376 72 67.1768V5.55899C72 2.69828 69.6857 0.36792 66.8571 0.36792ZM21.7607 62.0822H11.0893V27.7215H21.7768V62.0822H21.7607ZM16.425 23.0286C13.0018 23.0286 10.2375 20.2483 10.2375 16.8411C10.2375 13.434 13.0018 10.6536 16.425 10.6536C19.8321 10.6536 22.6125 13.434 22.6125 16.8411C22.6125 20.2643 19.8482 23.0286 16.425 23.0286ZM61.7625 62.0822H51.0911V45.3679C51.0911 41.3822 51.0107 36.2554 45.5464 36.2554C39.9857 36.2554 39.1339 40.5947 39.1339 45.0786V62.0822H28.4625V27.7215H38.7V32.4143H38.8446C40.275 29.7143 43.7625 26.8697 48.9536 26.8697C59.7536 26.8697 61.7625 33.9893 61.7625 43.2465V62.0822Z" fill="#484846"/>
</svg>
