<svg width="67" height="68" viewBox="0 0 67 68" fill="none" xmlns="http://www.w3.org/2000/svg">
<path d="M33.5 14H28V33H34L33.5 14Z" fill="#DF5566"/>
<path d="M34 33L45.5 21.5L51.5 24L42.5 33H34Z" fill="#FCD04C"/>
<path d="M46 12H38.5V28L46 20.5V12Z" fill="#B6E1E5"/>
<path d="M27 34L8.5 15.5L12 11.5L27 26V34Z" fill="#F7A9A7"/>
<path d="M10 25.5L13.5 21.5L24.5 33H17L10 25.5Z" fill="#21AD9E"/>
<path d="M58 27L55 24.5L47 33L52.5 33.5L58 27Z" fill="#21AD9E"/>
<path d="M10 25L8 24L12 19.5L13.5 21.5L10 25Z" fill="#FEF7ED"/>
<path d="M12 11.5L8.5 15L6.5 13.5L10 9.5L12 11.5Z" fill="#FEF7ED"/>
<path d="M27.5 13.5V10.5H33.5V13.5H27.5Z" fill="#FEF7ED"/>
<path d="M38 11.5V9.5H45.5V11.5H38Z" fill="#FEF7ED"/>
<path d="M46.5 20.5L47.5 19.5L53 21.5L51.5 23.5L46.5 20.5Z" fill="#FEF7ED"/>
<path d="M55 24.5L57.5 22.5L60 24.5L57.5 27L55 24.5Z" fill="#FEF7ED"/>
<path d="M14 66V44H12V34H55V44H53V66H14Z" fill="#BFBFC0"/>
<path d="M8 23L2 17L6 13.5L12 19L8 23Z" fill="#BFBFC0"/>
<path d="M4.5 13.5L1 10L5.5 5.5L9 9L4.5 13.5Z" fill="#BFBFC0"/>
<path d="M27.5 10.5V4H34L33.5 10.5H27.5Z" fill="#BFBFC0"/>
<path d="M38.5 8.5V2.5L45.5 2L45.7501 8.5H38.5Z" fill="#BFBFC0"/>
<path d="M48.5 19L52 15.5L58.5 16.5L53 21.5L48.5 19Z" fill="#BFBFC0"/>
<path d="M57.5 22.5L62 17L65 19.5L60 24.5L57.5 22.5Z" fill="#BFBFC0"/>
<path d="M14 44.0002V66.0002H53V44.0002M14 44.0002H12V33.5002H17.5M14 44.0002H53M53 44.0002H55V33.5002H52M17.5 33.5002H27.5M17.5 33.5002L10.9375 26.5002M26 33.5002L14.9375 22.0002M12 19.1413L8 23.5002M12 19.1413L14.9375 22.0002M12 19.1413L8.50003 15.5002M8 23.5002L2.5 18.0002V16.0002L4.5 15.5002V13.5002H5.5M8 23.5002L10.9375 26.5002M27.5 33.5002H34M27.5 33.5002V26.5002M34 33.5002V32.5002V15.0002M34 33.5002H42M34 10.5002V4.00024H27.5V10.5002M34 10.5002H27.5M34 10.5002V15.0002M27.5 10.5002V15.0002M34 15.0002H27.5M27.5 15.0002V26.5002M14.9375 22.0002L10.9375 26.5002M27.5 26.5002L12.5 12M4.5 14.0002L1.5 11.0002V7.50024H3.5V6.00024H6.5L9.76904 9.19145M9.76904 9.19145L5.5 13.5002M9.76904 9.19145L12.5 12M5.5 13.5002H6.5L8.50003 15.5002M12.5 12L8.50003 15.5002M42 33.5002H45.8286M42 33.5002L50.5 24.9789M50.5 24.9789L59 16.5002L52 15.0002L44.2407 22.6199M50.5 24.9789L44.2407 22.6199M44.2407 22.6199L45.8286 21.0002M45.8286 33.5002H52M45.8286 33.5002L54.1802 24.9789M52 33.5002L57.1802 28.1059M57 22.1018L62 17.0002L65 20.0002L60 25.1926M57 22.1018L60 25.1926M57 22.1018L54.1802 24.9789M60 25.1926L57.1802 28.1059M54.1802 24.9789L57.1802 28.1059M38.5 28.1252V13M38.5 28.1252L45.8286 21.0002M38.5 28.1252L34.5 32M38.5 9.19145V2.00024H45.8286V9.19145M38.5 9.19145H45.8286M38.5 9.19145V13M45.8286 9.19145V13M38.5 13H45.8286M45.8286 13V21.0002M54 21.5002L47.7407 19.1413" stroke="#484846" stroke-width="3" stroke-linecap="round" stroke-linejoin="round"/>
</svg>
