<svg width="67" height="78" viewBox="0 0 67 78" fill="none" xmlns="http://www.w3.org/2000/svg">
<path d="M53.0951 45.0495H45.0951C45.0951 45.0495 64.595 15.5495 57.095 10.0495C49.9162 4.78505 34.595 18.0495 24.595 30.0495C14.595 42.0495 16.1482 43.5675 10.095 52.5495C10.095 52.5495 4.70957 64.6492 9.59505 68.5495C14.2636 72.2767 24.595 65.5495 24.595 65.5495L32.595 66.5495C32.595 66.5495 12.095 79.5495 6.59505 74.5495C-4.6572 64.3202 7.06249 44.82 17.095 30.0495C28.5735 13.1502 53.4709 -4.57462 62.5951 4.54952C72.595 14.5495 53.0951 45.0495 53.0951 45.0495Z" fill="#FCD04C"/>
<path d="M44.0951 34.5495C44.0951 34.5495 41.5951 26.5495 31.5951 29.0495C26.4211 30.343 20.4121 40.7378 27.0951 47.0495C36.0951 55.5495 44.0951 46.0495 44.0951 46.0495H59.0951C59.0951 46.0495 54.1756 62.4379 40.5951 65.0495C27.5951 67.5495 19.0951 62.0495 17.5951 60.5495C16.0951 59.0495 10.5951 52.5495 10.5951 52.5495C10.5951 52.5495 20.5951 35.5495 24.5951 30.5495C28.5951 25.5495 42.0951 14.0495 42.0951 14.0495C42.0951 14.0495 48.5951 15.5495 53.0951 20.5495C57.5951 25.5495 59.0951 34.0495 59.0951 34.0495L44.0951 34.5495Z" fill="#B6E1E5"/>
<path d="M13.0951 22.5495C20.8951 13.5495 32.0951 12.5495 32.0951 12.5495L19.0951 28.0495L8.09509 43.5495C8.09509 43.5495 5.2951 31.5495 13.0951 22.5495Z" fill="#B6E1E5"/>
<path d="M59.0951 34.5496C62.0951 28.5496 69.5951 10.0496 62.5951 4.0495C55.5951 -1.95065 41.5951 6.5495 33.5951 12.5495M59.0951 34.5496C58.4507 30.8194 58.5951 30.0495 56.5951 25.5495M59.0951 34.5496C56.8449 34.5496 54.6101 34.5496 52.0951 34.5496M59.0951 34.5496C59.0951 34.5496 56.5951 39.5495 52.5951 45.5496M34.0951 65.7163C34.0951 65.7163 14.5951 79.9067 7.09507 74.5496C-0.404922 69.1925 2.18809 56.3499 8.09507 45.0495M34.0951 65.7163C55.0951 65.7163 59.0951 45.5496 59.0951 45.5496C59.0951 45.5496 55.1335 45.5496 52.5951 45.5496M34.0951 65.7163C34.0951 65.7163 28.5951 65.7163 25.5951 64.7162M56.5951 25.5495C57.0951 23.5495 61.0324 13.5495 57.0951 10.0496C50.7311 4.39279 34.2791 18.5053 24.0951 30.5496C18.5179 37.1455 13.5951 46.0495 10.5951 52.0495M56.5951 25.5495C56.5951 25.5495 51.4803 15.6259 41.4803 14.0496M25.5951 64.7162C16.5951 69.7162 12.595 70.9496 9.59506 68.5497C6.59507 66.1497 7.59507 58.0495 10.5951 52.0495M25.5951 64.7162C25.5951 64.7162 16.7614 62.0495 10.5951 52.0495M8.09507 45.0495C11.5688 38.404 15.15 32.5497 19.5951 27.0497C23.1382 22.6656 29.0527 16.5874 33.5951 12.5495M8.09507 45.0495C8.09507 45.0495 4.74072 35.3262 12.0951 24.0495C19.5951 12.5495 33.5951 12.5495 33.5951 12.5495M52.0951 34.5496C48.0627 34.5496 44.0951 34.5496 44.0951 34.5496C44.0951 34.5496 41.5951 28.5496 35.0951 28.5496C28.5951 28.5496 24.0248 34.5793 24.0951 40.0496C24.1618 45.2485 28.5951 50.5496 35.0951 50.5496C41.5951 50.5496 44.0951 45.5496 44.0951 45.5496H44.5951M52.0951 34.5496C52.0951 34.5496 49.0951 40.0496 44.5951 45.5496M44.5951 45.5496C44.5951 45.5496 49.4709 45.5496 52.5951 45.5496" stroke="#484846" stroke-width="3" stroke-linecap="round" stroke-linejoin="round"/>
</svg>
