<svg width="70" height="69" viewBox="0 0 70 69" fill="none" xmlns="http://www.w3.org/2000/svg">
<path d="M58 2.5H17.5V66.5H68V13.5L58 2.5Z" fill="#FEF7ED"/>
<path d="M42 56.5L36.5 53.5C36.5 53.5 36.6463 49.6366 37.5 48.5C38.6267 47 41.5 45.5 41.5 45.5L46.5 48.5C46.5 48.5 46.8787 51.9379 46 53.5C45.1213 55.0621 42 56.5 42 56.5Z" fill="#21AD9E"/>
<path d="M2 24.5V7.5H49V24.5H2Z" fill="#21AD9E"/>
<path d="M27 34.5C27 34.5 32.1577 34 35.5 34C39.5 34 42 35.5 45 37.5C48 39.5 57 46.5 57 46.5M31 45.5C31 45.5 39.8955 43.8528 44.5 46C48.8815 48.0432 53.5 56.5 53.5 56.5C53.5 56.5 44.8027 58.0526 39.5 56C33.8756 53.8228 31 45.5 31 45.5Z" stroke="#BFBFC0" stroke-width="3" stroke-linecap="round" stroke-linejoin="round"/>
<path d="M14.5 19L15.7481 19.8321L16 19.4542V19H14.5ZM22 11.5V10H20.5V11.5H22ZM28 11.5H29.5V10H28V11.5ZM33 13L32.0675 11.8251L31.5 12.2755V13H33ZM33 18.5H31.5V19L31.8 19.4L33 18.5ZM40 18.5L41.2 19.4L41.5 19V18.5H40ZM40 16H41.5V14.5H40V16ZM10 13H14.5V10H10V13ZM14.5 13H18.5V10H14.5V13ZM13 11.5V19H16V11.5H13ZM14.5 19C13.2519 18.1679 13.252 18.1678 13.2521 18.1677C13.2521 18.1676 13.2522 18.1675 13.2523 18.1675C13.2524 18.1673 13.2524 18.1672 13.2525 18.1671C13.2526 18.1669 13.2527 18.1668 13.2527 18.1668C13.2528 18.1667 13.2526 18.167 13.2521 18.1676C13.2513 18.1689 13.2496 18.1715 13.247 18.1753C13.2418 18.1829 13.2333 18.1954 13.2217 18.2122C13.1985 18.2457 13.1637 18.2956 13.1199 18.3561C13.031 18.4793 12.9122 18.6373 12.7852 18.7897C12.6512 18.9505 12.5409 19.0652 12.4691 19.1267C12.4331 19.1576 12.441 19.1453 12.4897 19.1187C12.5219 19.1012 12.7084 19 13 19V22C13.4166 22 13.7438 21.8519 13.9263 21.7524C14.1254 21.6438 14.2935 21.5143 14.4215 21.4045C14.6779 21.1848 14.9113 20.9245 15.0898 20.7103C15.2753 20.4877 15.4378 20.2707 15.552 20.1126C15.6098 20.0326 15.6569 19.9652 15.6904 19.9167C15.7072 19.8925 15.7206 19.8728 15.7303 19.8584C15.7352 19.8513 15.7391 19.8454 15.7421 19.841C15.7436 19.8388 15.7448 19.8369 15.7458 19.8354C15.7463 19.8347 15.7468 19.834 15.7471 19.8335C15.7473 19.8332 15.7475 19.8329 15.7477 19.8327C15.7477 19.8326 15.7478 19.8324 15.7479 19.8323C15.748 19.8322 15.7481 19.8321 14.5 19ZM13 19C12.998 19 12.9961 19 12.9941 19C12.9922 19 12.9902 19 12.9882 19C12.9863 19 12.9843 19 12.9823 19C12.9803 19 12.9784 19 12.9764 19C12.9744 19 12.9724 19 12.9704 19C12.9684 19 12.9664 19 12.9644 19C12.9624 19 12.9604 19 12.9584 19C12.9564 19 12.9544 19 12.9524 19C12.9504 19 12.9484 19 12.9464 19C12.9443 19 12.9423 19 12.9403 19C12.9383 19 12.9362 19 12.9342 19C12.9322 19 12.9301 19 12.9281 19C12.926 19 12.924 19 12.9219 19C12.9199 19 12.9178 19 12.9158 19C12.9137 19 12.9117 19 12.9096 19C12.9075 19 12.9055 19 12.9034 19C12.9013 19 12.8993 19 12.8972 19C12.8951 19 12.893 19 12.891 19C12.8889 19 12.8868 19 12.8847 19C12.8826 19 12.8805 19 12.8784 19C12.8763 19 12.8742 19 12.8721 19C12.87 19 12.8679 19 12.8658 19C12.8637 19 12.8616 19 12.8595 19C12.8573 19 12.8552 19 12.8531 19C12.851 19 12.8488 19 12.8467 19C12.8446 19 12.8424 19 12.8403 19C12.8382 19 12.836 19 12.8339 19C12.8318 19 12.8296 19 12.8275 19C12.8253 19 12.8232 19 12.821 19C12.8188 19 12.8167 19 12.8145 19C12.8124 19 12.8102 19 12.808 19C12.8059 19 12.8037 19 12.8015 19C12.7993 19 12.7972 19 12.795 19C12.7928 19 12.7906 19 12.7884 19C12.7862 19 12.7841 19 12.7819 19C12.7797 19 12.7775 19 12.7753 19C12.7731 19 12.7709 19 12.7687 19C12.7665 19 12.7643 19 12.762 19C12.7598 19 12.7576 19 12.7554 19C12.7532 19 12.751 19 12.7487 19C12.7465 19 12.7443 19 12.7421 19C12.7398 19 12.7376 19 12.7354 19C12.7331 19 12.7309 19 12.7287 19C12.7264 19 12.7242 19 12.7219 19C12.7197 19 12.7174 19 12.7152 19C12.7129 19 12.7107 19 12.7084 19C12.7062 19 12.7039 19 12.7016 19C12.6994 19 12.6971 19 12.6949 19C12.6926 19 12.6903 19 12.688 19C12.6858 19 12.6835 19 12.6812 19C12.6789 19 12.6767 19 12.6744 19C12.6721 19 12.6698 19 12.6675 19C12.6652 19 12.6629 19 12.6606 19C12.6583 19 12.656 19 12.6537 19C12.6514 19 12.6491 19 12.6468 19C12.6445 19 12.6422 19 12.6399 19C12.6376 19 12.6353 19 12.633 19C12.6307 19 12.6283 19 12.626 19C12.6237 19 12.6214 19 12.6191 19C12.6167 19 12.6144 19 12.6121 19C12.6097 19 12.6074 19 12.6051 19C12.6027 19 12.6004 19 12.5981 19C12.5957 19 12.5934 19 12.591 19C12.5887 19 12.5863 19 12.584 19C12.5816 19 12.5793 19 12.5769 19C12.5746 19 12.5722 19 12.5699 19C12.5675 19 12.5651 19 12.5628 19C12.5604 19 12.558 19 12.5557 19C12.5533 19 12.5509 19 12.5486 19C12.5462 19 12.5438 19 12.5414 19C12.5391 19 12.5367 19 12.5343 19C12.5319 19 12.5295 19 12.5271 19C12.5248 19 12.5224 19 12.52 19C12.5176 19 12.5152 19 12.5128 19C12.5104 19 12.508 19 12.5056 19C12.5032 19 12.5008 19 12.4984 19C12.496 19 12.4936 19 12.4912 19C12.4888 19 12.4864 19 12.4839 19C12.4815 19 12.4791 19 12.4767 19C12.4743 19 12.4719 19 12.4695 19C12.467 19 12.4646 19 12.4622 19C12.4598 19 12.4573 19 12.4549 19C12.4525 19 12.45 19 12.4476 19C12.4452 19 12.4427 19 12.4403 19C12.4379 19 12.4354 19 12.433 19C12.4306 19 12.4281 19 12.4257 19C12.4232 19 12.4208 19 12.4183 19C12.4159 19 12.4134 19 12.411 19C12.4085 19 12.4061 19 12.4036 19C12.4012 19 12.3987 19 12.3963 19C12.3938 19 12.3913 19 12.3889 19C12.3864 19 12.3839 19 12.3815 19C12.379 19 12.3765 19 12.3741 19C12.3716 19 12.3691 19 12.3667 19C12.3642 19 12.3617 19 12.3592 19C12.3568 19 12.3543 19 12.3518 19C12.3493 19 12.3468 19 12.3444 19C12.3419 19 12.3394 19 12.3369 19C12.3344 19 12.3319 19 12.3294 19C12.327 19 12.3245 19 12.322 19C12.3195 19 12.317 19 12.3145 19C12.312 19 12.3095 19 12.307 19C12.3045 19 12.302 19 12.2995 19C12.297 19 12.2945 19 12.292 19C12.2895 19 12.287 19 12.2845 19C12.282 19 12.2795 19 12.2769 19C12.2744 19 12.2719 19 12.2694 19C12.2669 19 12.2644 19 12.2619 19C12.2593 19 12.2568 19 12.2543 19C12.2518 19 12.2493 19 12.2467 19C12.2442 19 12.2417 19 12.2392 19C12.2367 19 12.2341 19 12.2316 19C12.2291 19 12.2265 19 12.224 19C12.2215 19 12.219 19 12.2164 19C12.2139 19 12.2114 19 12.2088 19C12.2063 19 12.2037 19 12.2012 19C12.1987 19 12.1961 19 12.1936 19C12.1911 19 12.1885 19 12.186 19C12.1834 19 12.1809 19 12.1783 19C12.1758 19 12.1733 19 12.1707 19C12.1682 19 12.1656 19 12.1631 19C12.1605 19 12.158 19 12.1554 19C12.1529 19 12.1503 19 12.1478 19C12.1452 19 12.1426 19 12.1401 19C12.1375 19 12.135 19 12.1324 19C12.1299 19 12.1273 19 12.1247 19C12.1222 19 12.1196 19 12.1171 19C12.1145 19 12.1119 19 12.1094 19C12.1068 19 12.1042 19 12.1017 19C12.0991 19 12.0965 19 12.094 19C12.0914 19 12.0888 19 12.0863 19C12.0837 19 12.0811 19 12.0786 19C12.076 19 12.0734 19 12.0709 19C12.0683 19 12.0657 19 12.0631 19C12.0606 19 12.058 19 12.0554 19C12.0528 19 12.0503 19 12.0477 19C12.0451 19 12.0425 19 12.0399 19C12.0374 19 12.0348 19 12.0322 19C12.0296 19 12.027 19 12.0245 19C12.0219 19 12.0193 19 12.0167 19C12.0141 19 12.0115 19 12.009 19C12.0064 19 12.0038 19 12.0012 19C11.9986 19 11.996 19 11.9935 19C11.9909 19 11.9883 19 11.9857 19C11.9831 19 11.9805 19 11.9779 19C11.9753 19 11.9727 19 11.9702 19C11.9676 19 11.965 19 11.9624 19C11.9598 19 11.9572 19 11.9546 19C11.952 19 11.9494 19 11.9468 19C11.9442 19 11.9416 19 11.939 19C11.9364 19 11.9338 19 11.9313 19C11.9287 19 11.9261 19 11.9235 19C11.9209 19 11.9183 19 11.9157 19C11.9131 19 11.9105 19 11.9079 19C11.9053 19 11.9027 19 11.9001 19C11.8975 19 11.8949 19 11.8923 19C11.8897 19 11.8871 19 11.8845 19C11.8819 19 11.8793 19 11.8767 19C11.8741 19 11.8715 19 11.8689 19C11.8663 19 11.8637 19 11.8611 19C11.8585 19 11.8559 19 11.8533 19C11.8507 19 11.8481 19 11.8455 19C11.8429 19 11.8403 19 11.8377 19C11.8351 19 11.8325 19 11.8299 19C11.8273 19 11.8246 19 11.822 19C11.8194 19 11.8168 19 11.8142 19C11.8116 19 11.809 19 11.8064 19C11.8038 19 11.8012 19 11.7986 19C11.796 19 11.7934 19 11.7908 19C11.7882 19 11.7856 19 11.783 19C11.7804 19 11.7778 19 11.7752 19C11.7726 19 11.77 19 11.7674 19C11.7648 19 11.7622 19 11.7595 19C11.7569 19 11.7543 19 11.7517 19C11.7491 19 11.7465 19 11.7439 19C11.7413 19 11.7387 19 11.7361 19C11.7335 19 11.7309 19 11.7283 19C11.7257 19 11.7231 19 11.7205 19C11.7179 19 11.7153 19 11.7127 19C11.7101 19 11.7075 19 11.7049 19C11.7023 19 11.6997 19 11.6971 19C11.6945 19 11.6919 19 11.6893 19C11.6867 19 11.6841 19 11.6815 19C11.6789 19 11.6763 19 11.6737 19C11.6711 19 11.6685 19 11.6659 19C11.6633 19 11.6607 19 11.6581 19C11.6555 19 11.6529 19 11.6503 19C11.6477 19 11.6451 19 11.6425 19C11.6399 19 11.6373 19 11.6347 19C11.6321 19 11.6295 19 11.6269 19C11.6243 19 11.6217 19 11.6191 19C11.6165 19 11.6139 19 11.6113 19C11.6087 19 11.6061 19 11.6035 19C11.601 19 11.5984 19 11.5958 19C11.5932 19 11.5906 19 11.588 19C11.5854 19 11.5828 19 11.5802 19C11.5776 19 11.575 19 11.5725 19C11.5699 19 11.5673 19 11.5647 19C11.5621 19 11.5595 19 11.5569 19C11.5543 19 11.5518 19 11.5492 19C11.5466 19 11.544 19 11.5414 19C11.5388 19 11.5363 19 11.5337 19C11.5311 19 11.5285 19 11.5259 19C11.5233 19 11.5208 19 11.5182 19C11.5156 19 11.513 19 11.5105 19C11.5079 19 11.5053 19 11.5027 19C11.5001 19 11.4976 19 11.495 19C11.4924 19 11.4898 19 11.4873 19C11.4847 19 11.4821 19 11.4796 19C11.477 19 11.4744 19 11.4718 19C11.4693 19 11.4667 19 11.4641 19C11.4616 19 11.459 19 11.4564 19C11.4539 19 11.4513 19 11.4487 19C11.4462 19 11.4436 19 11.4411 19C11.4385 19 11.4359 19 11.4334 19C11.4308 19 11.4283 19 11.4257 19C11.4231 19 11.4206 19 11.418 19C11.4155 19 11.4129 19 11.4104 19C11.4078 19 11.4052 19 11.4027 19C11.4001 19 11.3976 19 11.395 19C11.3925 19 11.3899 19 11.3874 19C11.3849 19 11.3823 19 11.3798 19C11.3772 19 11.3747 19 11.3721 19C11.3696 19 11.367 19 11.3645 19C11.362 19 11.3594 19 11.3569 19C11.3543 19 11.3518 19 11.3493 19C11.3467 19 11.3442 19 11.3417 19C11.3391 19 11.3366 19 11.3341 19C11.3315 19 11.329 19 11.3265 19C11.324 19 11.3214 19 11.3189 19C11.3164 19 11.3139 19 11.3113 19C11.3088 19 11.3063 19 11.3038 19C11.3012 19 11.2987 19 11.2962 19C11.2937 19 11.2912 19 11.2887 19C11.2861 19 11.2836 19 11.2811 19C11.2786 19 11.2761 19 11.2736 19C11.2711 19 11.2686 19 11.2661 19C11.2636 19 11.2611 19 11.2586 19C11.2561 19 11.2536 19 11.2511 19C11.2486 19 11.2461 19 11.2436 19C11.2411 19 11.2386 19 11.2361 19C11.2336 19 11.2311 19 11.2286 19C11.2261 19 11.2236 19 11.2211 19C11.2186 19 11.2162 19 11.2137 19C11.2112 19 11.2087 19 11.2062 19C11.2037 19 11.2013 19 11.1988 19C11.1963 19 11.1938 19 11.1914 19C11.1889 19 11.1864 19 11.1839 19C11.1815 19 11.179 19 11.1765 19C11.1741 19 11.1716 19 11.1691 19C11.1667 19 11.1642 19 11.1618 19C11.1593 19 11.1568 19 11.1544 19C11.1519 19 11.1495 19 11.147 19C11.1446 19 11.1421 19 11.1397 19C11.1372 19 11.1348 19 11.1323 19C11.1299 19 11.1274 19 11.125 19C11.1226 19 11.1201 19 11.1177 19C11.1152 19 11.1128 19 11.1104 19C11.1079 19 11.1055 19 11.1031 19C11.1006 19 11.0982 19 11.0958 19C11.0934 19 11.0909 19 11.0885 19C11.0861 19 11.0837 19 11.0813 19C11.0788 19 11.0764 19 11.074 19C11.0716 19 11.0692 19 11.0668 19C11.0644 19 11.062 19 11.0596 19C11.0572 19 11.0548 19 11.0524 19C11.05 19 11.0476 19 11.0452 19C11.0428 19 11.0404 19 11.038 19C11.0356 19 11.0332 19 11.0308 19C11.0284 19 11.026 19 11.0236 19C11.0213 19 11.0189 19 11.0165 19C11.0141 19 11.0117 19 11.0094 19C11.007 19 11.0046 19 11.0023 19C10.9999 19 10.9975 19 10.9951 19C10.9928 19 10.9904 19 10.9881 19C10.9857 19 10.9833 19 10.981 19C10.9786 19 10.9763 19 10.9739 19C10.9716 19 10.9692 19 10.9669 19C10.9645 19 10.9622 19 10.9598 19C10.9575 19 10.9552 19 10.9528 19C10.9505 19 10.9482 19 10.9458 19C10.9435 19 10.9412 19 10.9388 19C10.9365 19 10.9342 19 10.9319 19C10.9295 19 10.9272 19 10.9249 19C10.9226 19 10.9203 19 10.918 19C10.9156 19 10.9133 19 10.911 19C10.9087 19 10.9064 19 10.9041 19C10.9018 19 10.8995 19 10.8972 19C10.8949 19 10.8926 19 10.8903 19C10.888 19 10.8858 19 10.8835 19C10.8812 19 10.8789 19 10.8766 19C10.8743 19 10.8721 19 10.8698 19C10.8675 19 10.8652 19 10.863 19C10.8607 19 10.8584 19 10.8562 19C10.8539 19 10.8516 19 10.8494 19C10.8471 19 10.8449 19 10.8426 19C10.8404 19 10.8381 19 10.8359 19C10.8336 19 10.8314 19 10.8291 19C10.8269 19 10.8247 19 10.8224 19C10.8202 19 10.8179 19 10.8157 19C10.8135 19 10.8113 19 10.809 19C10.8068 19 10.8046 19 10.8024 19C10.8002 19 10.7979 19 10.7957 19C10.7935 19 10.7913 19 10.7891 19C10.7869 19 10.7847 19 10.7825 19C10.7803 19 10.7781 19 10.7759 19C10.7737 19 10.7715 19 10.7693 19C10.7671 19 10.7649 19 10.7628 19C10.7606 19 10.7584 19 10.7562 19C10.754 19 10.7519 19 10.7497 19C10.7475 19 10.7454 19 10.7432 19C10.741 19 10.7389 19 10.7367 19C10.7346 19 10.7324 19 10.7302 19C10.7281 19 10.726 19 10.7238 19C10.7217 19 10.7195 19 10.7174 19C10.7152 19 10.7131 19 10.711 19C10.7088 19 10.7067 19 10.7046 19C10.7025 19 10.7003 19 10.6982 19C10.6961 19 10.694 19 10.6919 19C10.6898 19 10.6877 19 10.6855 19C10.6834 19 10.6813 19 10.6792 19C10.6771 19 10.675 19 10.673 19C10.6709 19 10.6688 19 10.6667 19C10.6646 19 10.6625 19 10.6604 19C10.6584 19 10.6563 19 10.6542 19C10.6521 19 10.6501 19 10.648 19C10.6459 19 10.6439 19 10.6418 19C10.6398 19 10.6377 19 10.6357 19C10.6336 19 10.6316 19 10.6295 19C10.6275 19 10.6254 19 10.6234 19C10.6214 19 10.6193 19 10.6173 19C10.6153 19 10.6132 19 10.6112 19C10.6092 19 10.6072 19 10.6052 19C10.6032 19 10.6011 19 10.5991 19C10.5971 19 10.5951 19 10.5931 19C10.5911 19 10.5891 19 10.5871 19C10.5851 19 10.5831 19 10.5812 19C10.5792 19 10.5772 19 10.5752 19C10.5732 19 10.5713 19 10.5693 19C10.5673 19 10.5654 19 10.5634 19C10.5614 19 10.5595 19 10.5575 19C10.5556 19 10.5536 19 10.5517 19C10.5497 19 10.5478 19 10.5458 19C10.5439 19 10.5419 19 10.54 19C10.5381 19 10.5362 19 10.5342 19C10.5323 19 10.5304 19 10.5285 19C10.5265 19 10.5246 19 10.5227 19C10.5208 19 10.5189 19 10.517 19C10.5151 19 10.5132 19 10.5113 19C10.5094 19 10.5075 19 10.5056 19C10.5038 19 10.5019 19 10.5 19C10.4981 19 10.4963 19 10.4944 19C10.4925 19 10.4907 19 10.4888 19C10.4869 19 10.4851 19 10.4832 19C10.4814 19 10.4795 19 10.4777 19C10.4758 19 10.474 19 10.4722 19C10.4703 19 10.4685 19 10.4667 19C10.4648 19 10.463 19 10.4612 19C10.4594 19 10.4575 19 10.4557 19C10.4539 19 10.4521 19 10.4503 19C10.4485 19 10.4467 19 10.4449 19C10.4431 19 10.4413 19 10.4395 19C10.4378 19 10.436 19 10.4342 19C10.4324 19 10.4307 19 10.4289 19C10.4271 19 10.4253 19 10.4236 19C10.4218 19 10.4201 19 10.4183 19C10.4166 19 10.4148 19 10.4131 19C10.4113 19 10.4096 19 10.4079 19C10.4061 19 10.4044 19 10.4027 19C10.401 19 10.3992 19 10.3975 19C10.3958 19 10.3941 19 10.3924 19C10.3907 19 10.389 19 10.3873 19C10.3856 19 10.3839 19 10.3822 19C10.3805 19 10.3788 19 10.3771 19C10.3755 19 10.3738 19 10.3721 19C10.3704 19 10.3688 19 10.3671 19C10.3655 19 10.3638 19 10.3621 19C10.3605 19 10.3588 19 10.3572 19C10.3556 19 10.3539 19 10.3523 19C10.3506 19 10.349 19 10.3474 19C10.3458 19 10.3442 19 10.3425 19C10.3409 19 10.3393 19 10.3377 19C10.3361 19 10.3345 19 10.3329 19C10.3313 19 10.3297 19 10.3281 19C10.3265 19 10.325 19 10.3234 19C10.3218 19 10.3202 19 10.3187 19C10.3171 19 10.3155 19 10.314 19C10.3124 19 10.3109 19 10.3093 19C10.3078 19 10.3062 19 10.3047 19C10.3031 19 10.3016 19 10.3001 19C10.2986 19 10.297 19 10.2955 19C10.294 19 10.2925 19 10.291 19C10.2895 19 10.288 19 10.2865 19C10.285 19 10.2835 19 10.282 19C10.2805 19 10.279 19 10.2775 19C10.276 19 10.2746 19 10.2731 19C10.2716 19 10.2702 19 10.2687 19C10.2672 19 10.2658 19 10.2643 19C10.2629 19 10.2614 19 10.26 19C10.2586 19 10.2571 19 10.2557 19C10.2543 19 10.2529 19 10.2514 19C10.25 19 10.2486 19 10.2472 19C10.2458 19 10.2444 19 10.243 19C10.2416 19 10.2402 19 10.2388 19C10.2374 19 10.236 19 10.2347 19C10.2333 19 10.2319 19 10.2306 19C10.2292 19 10.2278 19 10.2265 19C10.2251 19 10.2238 19 10.2224 19C10.2211 19 10.2197 19 10.2184 19C10.2171 19 10.2157 19 10.2144 19C10.2131 19 10.2118 19 10.2105 19C10.2091 19 10.2078 19 10.2065 19C10.2052 19 10.2039 19 10.2026 19C10.2013 19 10.2001 19 10.1988 19C10.1975 19 10.1962 19 10.195 19C10.1937 19 10.1924 19 10.1912 19C10.1899 19 10.1886 19 10.1874 19C10.1862 19 10.1849 19 10.1837 19C10.1824 19 10.1812 19 10.18 19C10.1788 19 10.1775 19 10.1763 19C10.1751 19 10.1739 19 10.1727 19C10.1715 19 10.1703 19 10.1691 19C10.1679 19 10.1667 19 10.1655 19C10.1644 19 10.1632 19 10.162 19C10.1608 19 10.1597 19 10.1585 19C10.1574 19 10.1562 19 10.1551 19C10.1539 19 10.1528 19 10.1516 19C10.1505 19 10.1494 19 10.1483 19C10.1471 19 10.146 19 10.1449 19C10.1438 19 10.1427 19 10.1416 19C10.1405 19 10.1394 19 10.1383 19C10.1372 19 10.1361 19 10.135 19C10.134 19 10.1329 19 10.1318 19C10.1308 19 10.1297 19 10.1286 19C10.1276 19 10.1265 19 10.1255 19C10.1245 19 10.1234 19 10.1224 19C10.1214 19 10.1203 19 10.1193 19C10.1183 19 10.1173 19 10.1163 19C10.1153 19 10.1143 19 10.1133 19C10.1123 19 10.1113 19 10.1103 19C10.1093 19 10.1084 19 10.1074 19C10.1064 19 10.1054 19 10.1045 19C10.1035 19 10.1026 19 10.1016 19C10.1007 19 10.0997 19 10.0988 19C10.0979 19 10.0969 19 10.096 19C10.0951 19 10.0942 19 10.0933 19C10.0924 19 10.0915 19 10.0906 19C10.0897 19 10.0888 19 10.0879 19C10.087 19 10.0861 19 10.0853 19C10.0844 19 10.0835 19 10.0827 19C10.0818 19 10.0809 19 10.0801 19C10.0792 19 10.0784 19 10.0776 19C10.0767 19 10.0759 19 10.0751 19C10.0743 19 10.0734 19 10.0726 19C10.0718 19 10.071 19 10.0702 19C10.0694 19 10.0686 19 10.0679 19C10.0671 19 10.0663 19 10.0655 19C10.0647 19 10.064 19 10.0632 19C10.0625 19 10.0617 19 10.061 19C10.0602 19 10.0595 19 10.0587 19C10.058 19 10.0573 19 10.0566 19C10.0558 19 10.0551 19 10.0544 19C10.0537 19 10.053 19 10.0523 19C10.0516 19 10.0509 19 10.0503 19C10.0496 19 10.0489 19 10.0482 19C10.0476 19 10.0469 19 10.0463 19C10.0456 19 10.045 19 10.0443 19C10.0437 19 10.043 19 10.0424 19C10.0418 19 10.0412 19 10.0405 19C10.0399 19 10.0393 19 10.0387 19C10.0381 19 10.0375 19 10.0369 19C10.0363 19 10.0358 19 10.0352 19C10.0346 19 10.034 19 10.0335 19C10.0329 19 10.0324 19 10.0318 19C10.0313 19 10.0307 19 10.0302 19C10.0297 19 10.0291 19 10.0286 19C10.0281 19 10.0276 19 10.0271 19C10.0266 19 10.0261 19 10.0256 19C10.0251 19 10.0246 19 10.0241 19C10.0236 19 10.0232 19 10.0227 19C10.0222 19 10.0218 19 10.0213 19C10.0209 19 10.0204 19 10.02 19C10.0196 19 10.0191 19 10.0187 19C10.0183 19 10.0179 19 10.0175 19C10.017 19 10.0166 19 10.0162 19C10.0158 19 10.0155 19 10.0151 19C10.0147 19 10.0143 19 10.014 19C10.0136 19 10.0132 19 10.0129 19C10.0125 19 10.0122 19 10.0118 19C10.0115 19 10.0112 19 10.0108 19C10.0105 19 10.0102 19 10.0099 19C10.0096 19 10.0093 19 10.009 19C10.0087 19 10.0084 19 10.0081 19C10.0078 19 10.0076 19 10.0073 19C10.007 19 10.0068 19 10.0065 19C10.0063 19 10.006 19 10.0058 19C10.0055 19 10.0053 19 10.0051 19C10.0049 19 10.0046 19 10.0044 19C10.0042 19 10.004 19 10.0038 19C10.0036 19 10.0034 19 10.0033 19C10.0031 19 10.0029 19 10.0027 19C10.0026 19 10.0024 19 10.0023 19C10.0021 19 10.002 19 10.0018 19C10.0017 19 10.0016 19 10.0015 19C10.0013 19 10.0012 19 10.0011 19C10.001 19 10.0009 19 10.0008 19C10.0007 19 10.0006 19 10.0006 19C10.0005 19 10.0004 19 10.0004 19C10.0003 19 10.0003 19 10.0002 19C10.0002 19 10.0001 19 10.0001 19C10.0001 19 10 19 10 19C10 19 10 19 10 20.5C10 22 10 22 10 22C10 22 10.0001 22 10.0001 22C10.0001 22 10.0002 22 10.0002 22C10.0003 22 10.0003 22 10.0004 22C10.0004 22 10.0005 22 10.0006 22C10.0006 22 10.0007 22 10.0008 22C10.0009 22 10.001 22 10.0011 22C10.0012 22 10.0013 22 10.0015 22C10.0016 22 10.0017 22 10.0018 22C10.002 22 10.0021 22 10.0023 22C10.0024 22 10.0026 22 10.0027 22C10.0029 22 10.0031 22 10.0033 22C10.0034 22 10.0036 22 10.0038 22C10.004 22 10.0042 22 10.0044 22C10.0046 22 10.0049 22 10.0051 22C10.0053 22 10.0055 22 10.0058 22C10.006 22 10.0063 22 10.0065 22C10.0068 22 10.007 22 10.0073 22C10.0076 22 10.0078 22 10.0081 22C10.0084 22 10.0087 22 10.009 22C10.0093 22 10.0096 22 10.0099 22C10.0102 22 10.0105 22 10.0108 22C10.0112 22 10.0115 22 10.0118 22C10.0122 22 10.0125 22 10.0129 22C10.0132 22 10.0136 22 10.014 22C10.0143 22 10.0147 22 10.0151 22C10.0155 22 10.0158 22 10.0162 22C10.0166 22 10.017 22 10.0175 22C10.0179 22 10.0183 22 10.0187 22C10.0191 22 10.0196 22 10.02 22C10.0204 22 10.0209 22 10.0213 22C10.0218 22 10.0222 22 10.0227 22C10.0232 22 10.0236 22 10.0241 22C10.0246 22 10.0251 22 10.0256 22C10.0261 22 10.0266 22 10.0271 22C10.0276 22 10.0281 22 10.0286 22C10.0291 22 10.0297 22 10.0302 22C10.0307 22 10.0313 22 10.0318 22C10.0324 22 10.0329 22 10.0335 22C10.034 22 10.0346 22 10.0352 22C10.0358 22 10.0363 22 10.0369 22C10.0375 22 10.0381 22 10.0387 22C10.0393 22 10.0399 22 10.0405 22C10.0412 22 10.0418 22 10.0424 22C10.043 22 10.0437 22 10.0443 22C10.045 22 10.0456 22 10.0463 22C10.0469 22 10.0476 22 10.0482 22C10.0489 22 10.0496 22 10.0503 22C10.0509 22 10.0516 22 10.0523 22C10.053 22 10.0537 22 10.0544 22C10.0551 22 10.0558 22 10.0566 22C10.0573 22 10.058 22 10.0587 22C10.0595 22 10.0602 22 10.061 22C10.0617 22 10.0625 22 10.0632 22C10.064 22 10.0647 22 10.0655 22C10.0663 22 10.0671 22 10.0679 22C10.0686 22 10.0694 22 10.0702 22C10.071 22 10.0718 22 10.0726 22C10.0734 22 10.0743 22 10.0751 22C10.0759 22 10.0767 22 10.0776 22C10.0784 22 10.0792 22 10.0801 22C10.0809 22 10.0818 22 10.0827 22C10.0835 22 10.0844 22 10.0853 22C10.0861 22 10.087 22 10.0879 22C10.0888 22 10.0897 22 10.0906 22C10.0915 22 10.0924 22 10.0933 22C10.0942 22 10.0951 22 10.096 22C10.0969 22 10.0979 22 10.0988 22C10.0997 22 10.1007 22 10.1016 22C10.1026 22 10.1035 22 10.1045 22C10.1054 22 10.1064 22 10.1074 22C10.1084 22 10.1093 22 10.1103 22C10.1113 22 10.1123 22 10.1133 22C10.1143 22 10.1153 22 10.1163 22C10.1173 22 10.1183 22 10.1193 22C10.1203 22 10.1214 22 10.1224 22C10.1234 22 10.1245 22 10.1255 22C10.1265 22 10.1276 22 10.1286 22C10.1297 22 10.1308 22 10.1318 22C10.1329 22 10.134 22 10.135 22C10.1361 22 10.1372 22 10.1383 22C10.1394 22 10.1405 22 10.1416 22C10.1427 22 10.1438 22 10.1449 22C10.146 22 10.1471 22 10.1483 22C10.1494 22 10.1505 22 10.1516 22C10.1528 22 10.1539 22 10.1551 22C10.1562 22 10.1574 22 10.1585 22C10.1597 22 10.1608 22 10.162 22C10.1632 22 10.1644 22 10.1655 22C10.1667 22 10.1679 22 10.1691 22C10.1703 22 10.1715 22 10.1727 22C10.1739 22 10.1751 22 10.1763 22C10.1775 22 10.1788 22 10.18 22C10.1812 22 10.1824 22 10.1837 22C10.1849 22 10.1862 22 10.1874 22C10.1886 22 10.1899 22 10.1912 22C10.1924 22 10.1937 22 10.195 22C10.1962 22 10.1975 22 10.1988 22C10.2001 22 10.2013 22 10.2026 22C10.2039 22 10.2052 22 10.2065 22C10.2078 22 10.2091 22 10.2105 22C10.2118 22 10.2131 22 10.2144 22C10.2157 22 10.2171 22 10.2184 22C10.2197 22 10.2211 22 10.2224 22C10.2238 22 10.2251 22 10.2265 22C10.2278 22 10.2292 22 10.2306 22C10.2319 22 10.2333 22 10.2347 22C10.236 22 10.2374 22 10.2388 22C10.2402 22 10.2416 22 10.243 22C10.2444 22 10.2458 22 10.2472 22C10.2486 22 10.25 22 10.2514 22C10.2529 22 10.2543 22 10.2557 22C10.2571 22 10.2586 22 10.26 22C10.2614 22 10.2629 22 10.2643 22C10.2658 22 10.2672 22 10.2687 22C10.2702 22 10.2716 22 10.2731 22C10.2746 22 10.276 22 10.2775 22C10.279 22 10.2805 22 10.282 22C10.2835 22 10.285 22 10.2865 22C10.288 22 10.2895 22 10.291 22C10.2925 22 10.294 22 10.2955 22C10.297 22 10.2986 22 10.3001 22C10.3016 22 10.3031 22 10.3047 22C10.3062 22 10.3078 22 10.3093 22C10.3109 22 10.3124 22 10.314 22C10.3155 22 10.3171 22 10.3187 22C10.3202 22 10.3218 22 10.3234 22C10.325 22 10.3265 22 10.3281 22C10.3297 22 10.3313 22 10.3329 22C10.3345 22 10.3361 22 10.3377 22C10.3393 22 10.3409 22 10.3425 22C10.3442 22 10.3458 22 10.3474 22C10.349 22 10.3506 22 10.3523 22C10.3539 22 10.3556 22 10.3572 22C10.3588 22 10.3605 22 10.3621 22C10.3638 22 10.3655 22 10.3671 22C10.3688 22 10.3704 22 10.3721 22C10.3738 22 10.3755 22 10.3771 22C10.3788 22 10.3805 22 10.3822 22C10.3839 22 10.3856 22 10.3873 22C10.389 22 10.3907 22 10.3924 22C10.3941 22 10.3958 22 10.3975 22C10.3992 22 10.401 22 10.4027 22C10.4044 22 10.4061 22 10.4079 22C10.4096 22 10.4113 22 10.4131 22C10.4148 22 10.4166 22 10.4183 22C10.4201 22 10.4218 22 10.4236 22C10.4253 22 10.4271 22 10.4289 22C10.4307 22 10.4324 22 10.4342 22C10.436 22 10.4378 22 10.4395 22C10.4413 22 10.4431 22 10.4449 22C10.4467 22 10.4485 22 10.4503 22C10.4521 22 10.4539 22 10.4557 22C10.4575 22 10.4594 22 10.4612 22C10.463 22 10.4648 22 10.4667 22C10.4685 22 10.4703 22 10.4722 22C10.474 22 10.4758 22 10.4777 22C10.4795 22 10.4814 22 10.4832 22C10.4851 22 10.4869 22 10.4888 22C10.4907 22 10.4925 22 10.4944 22C10.4963 22 10.4981 22 10.5 22C10.5019 22 10.5038 22 10.5056 22C10.5075 22 10.5094 22 10.5113 22C10.5132 22 10.5151 22 10.517 22C10.5189 22 10.5208 22 10.5227 22C10.5246 22 10.5265 22 10.5285 22C10.5304 22 10.5323 22 10.5342 22C10.5362 22 10.5381 22 10.54 22C10.5419 22 10.5439 22 10.5458 22C10.5478 22 10.5497 22 10.5517 22C10.5536 22 10.5556 22 10.5575 22C10.5595 22 10.5614 22 10.5634 22C10.5654 22 10.5673 22 10.5693 22C10.5713 22 10.5732 22 10.5752 22C10.5772 22 10.5792 22 10.5812 22C10.5831 22 10.5851 22 10.5871 22C10.5891 22 10.5911 22 10.5931 22C10.5951 22 10.5971 22 10.5991 22C10.6011 22 10.6032 22 10.6052 22C10.6072 22 10.6092 22 10.6112 22C10.6132 22 10.6153 22 10.6173 22C10.6193 22 10.6214 22 10.6234 22C10.6254 22 10.6275 22 10.6295 22C10.6316 22 10.6336 22 10.6357 22C10.6377 22 10.6398 22 10.6418 22C10.6439 22 10.6459 22 10.648 22C10.6501 22 10.6521 22 10.6542 22C10.6563 22 10.6584 22 10.6604 22C10.6625 22 10.6646 22 10.6667 22C10.6688 22 10.6709 22 10.673 22C10.675 22 10.6771 22 10.6792 22C10.6813 22 10.6834 22 10.6855 22C10.6877 22 10.6898 22 10.6919 22C10.694 22 10.6961 22 10.6982 22C10.7003 22 10.7025 22 10.7046 22C10.7067 22 10.7088 22 10.711 22C10.7131 22 10.7152 22 10.7174 22C10.7195 22 10.7217 22 10.7238 22C10.726 22 10.7281 22 10.7302 22C10.7324 22 10.7346 22 10.7367 22C10.7389 22 10.741 22 10.7432 22C10.7454 22 10.7475 22 10.7497 22C10.7519 22 10.754 22 10.7562 22C10.7584 22 10.7606 22 10.7628 22C10.7649 22 10.7671 22 10.7693 22C10.7715 22 10.7737 22 10.7759 22C10.7781 22 10.7803 22 10.7825 22C10.7847 22 10.7869 22 10.7891 22C10.7913 22 10.7935 22 10.7957 22C10.7979 22 10.8002 22 10.8024 22C10.8046 22 10.8068 22 10.809 22C10.8113 22 10.8135 22 10.8157 22C10.8179 22 10.8202 22 10.8224 22C10.8247 22 10.8269 22 10.8291 22C10.8314 22 10.8336 22 10.8359 22C10.8381 22 10.8404 22 10.8426 22C10.8449 22 10.8471 22 10.8494 22C10.8516 22 10.8539 22 10.8562 22C10.8584 22 10.8607 22 10.863 22C10.8652 22 10.8675 22 10.8698 22C10.8721 22 10.8743 22 10.8766 22C10.8789 22 10.8812 22 10.8835 22C10.8858 22 10.888 22 10.8903 22C10.8926 22 10.8949 22 10.8972 22C10.8995 22 10.9018 22 10.9041 22C10.9064 22 10.9087 22 10.911 22C10.9133 22 10.9156 22 10.918 22C10.9203 22 10.9226 22 10.9249 22C10.9272 22 10.9295 22 10.9319 22C10.9342 22 10.9365 22 10.9388 22C10.9412 22 10.9435 22 10.9458 22C10.9482 22 10.9505 22 10.9528 22C10.9552 22 10.9575 22 10.9598 22C10.9622 22 10.9645 22 10.9669 22C10.9692 22 10.9716 22 10.9739 22C10.9763 22 10.9786 22 10.981 22C10.9833 22 10.9857 22 10.9881 22C10.9904 22 10.9928 22 10.9951 22C10.9975 22 10.9999 22 11.0023 22C11.0046 22 11.007 22 11.0094 22C11.0117 22 11.0141 22 11.0165 22C11.0189 22 11.0213 22 11.0236 22C11.026 22 11.0284 22 11.0308 22C11.0332 22 11.0356 22 11.038 22C11.0404 22 11.0428 22 11.0452 22C11.0476 22 11.05 22 11.0524 22C11.0548 22 11.0572 22 11.0596 22C11.062 22 11.0644 22 11.0668 22C11.0692 22 11.0716 22 11.074 22C11.0764 22 11.0788 22 11.0813 22C11.0837 22 11.0861 22 11.0885 22C11.0909 22 11.0934 22 11.0958 22C11.0982 22 11.1006 22 11.1031 22C11.1055 22 11.1079 22 11.1104 22C11.1128 22 11.1152 22 11.1177 22C11.1201 22 11.1226 22 11.125 22C11.1274 22 11.1299 22 11.1323 22C11.1348 22 11.1372 22 11.1397 22C11.1421 22 11.1446 22 11.147 22C11.1495 22 11.1519 22 11.1544 22C11.1568 22 11.1593 22 11.1618 22C11.1642 22 11.1667 22 11.1691 22C11.1716 22 11.1741 22 11.1765 22C11.179 22 11.1815 22 11.1839 22C11.1864 22 11.1889 22 11.1914 22C11.1938 22 11.1963 22 11.1988 22C11.2013 22 11.2037 22 11.2062 22C11.2087 22 11.2112 22 11.2137 22C11.2162 22 11.2186 22 11.2211 22C11.2236 22 11.2261 22 11.2286 22C11.2311 22 11.2336 22 11.2361 22C11.2386 22 11.2411 22 11.2436 22C11.2461 22 11.2486 22 11.2511 22C11.2536 22 11.2561 22 11.2586 22C11.2611 22 11.2636 22 11.2661 22C11.2686 22 11.2711 22 11.2736 22C11.2761 22 11.2786 22 11.2811 22C11.2836 22 11.2861 22 11.2887 22C11.2912 22 11.2937 22 11.2962 22C11.2987 22 11.3012 22 11.3038 22C11.3063 22 11.3088 22 11.3113 22C11.3139 22 11.3164 22 11.3189 22C11.3214 22 11.324 22 11.3265 22C11.329 22 11.3315 22 11.3341 22C11.3366 22 11.3391 22 11.3417 22C11.3442 22 11.3467 22 11.3493 22C11.3518 22 11.3543 22 11.3569 22C11.3594 22 11.362 22 11.3645 22C11.367 22 11.3696 22 11.3721 22C11.3747 22 11.3772 22 11.3798 22C11.3823 22 11.3849 22 11.3874 22C11.3899 22 11.3925 22 11.395 22C11.3976 22 11.4001 22 11.4027 22C11.4052 22 11.4078 22 11.4104 22C11.4129 22 11.4155 22 11.418 22C11.4206 22 11.4231 22 11.4257 22C11.4283 22 11.4308 22 11.4334 22C11.4359 22 11.4385 22 11.4411 22C11.4436 22 11.4462 22 11.4487 22C11.4513 22 11.4539 22 11.4564 22C11.459 22 11.4616 22 11.4641 22C11.4667 22 11.4693 22 11.4718 22C11.4744 22 11.477 22 11.4796 22C11.4821 22 11.4847 22 11.4873 22C11.4898 22 11.4924 22 11.495 22C11.4976 22 11.5001 22 11.5027 22C11.5053 22 11.5079 22 11.5105 22C11.513 22 11.5156 22 11.5182 22C11.5208 22 11.5233 22 11.5259 22C11.5285 22 11.5311 22 11.5337 22C11.5363 22 11.5388 22 11.5414 22C11.544 22 11.5466 22 11.5492 22C11.5518 22 11.5543 22 11.5569 22C11.5595 22 11.5621 22 11.5647 22C11.5673 22 11.5699 22 11.5725 22C11.575 22 11.5776 22 11.5802 22C11.5828 22 11.5854 22 11.588 22C11.5906 22 11.5932 22 11.5958 22C11.5984 22 11.601 22 11.6035 22C11.6061 22 11.6087 22 11.6113 22C11.6139 22 11.6165 22 11.6191 22C11.6217 22 11.6243 22 11.6269 22C11.6295 22 11.6321 22 11.6347 22C11.6373 22 11.6399 22 11.6425 22C11.6451 22 11.6477 22 11.6503 22C11.6529 22 11.6555 22 11.6581 22C11.6607 22 11.6633 22 11.6659 22C11.6685 22 11.6711 22 11.6737 22C11.6763 22 11.6789 22 11.6815 22C11.6841 22 11.6867 22 11.6893 22C11.6919 22 11.6945 22 11.6971 22C11.6997 22 11.7023 22 11.7049 22C11.7075 22 11.7101 22 11.7127 22C11.7153 22 11.7179 22 11.7205 22C11.7231 22 11.7257 22 11.7283 22C11.7309 22 11.7335 22 11.7361 22C11.7387 22 11.7413 22 11.7439 22C11.7465 22 11.7491 22 11.7517 22C11.7543 22 11.7569 22 11.7595 22C11.7622 22 11.7648 22 11.7674 22C11.77 22 11.7726 22 11.7752 22C11.7778 22 11.7804 22 11.783 22C11.7856 22 11.7882 22 11.7908 22C11.7934 22 11.796 22 11.7986 22C11.8012 22 11.8038 22 11.8064 22C11.809 22 11.8116 22 11.8142 22C11.8168 22 11.8194 22 11.822 22C11.8246 22 11.8273 22 11.8299 22C11.8325 22 11.8351 22 11.8377 22C11.8403 22 11.8429 22 11.8455 22C11.8481 22 11.8507 22 11.8533 22C11.8559 22 11.8585 22 11.8611 22C11.8637 22 11.8663 22 11.8689 22C11.8715 22 11.8741 22 11.8767 22C11.8793 22 11.8819 22 11.8845 22C11.8871 22 11.8897 22 11.8923 22C11.8949 22 11.8975 22 11.9001 22C11.9027 22 11.9053 22 11.9079 22C11.9105 22 11.9131 22 11.9157 22C11.9183 22 11.9209 22 11.9235 22C11.9261 22 11.9287 22 11.9313 22C11.9338 22 11.9364 22 11.939 22C11.9416 22 11.9442 22 11.9468 22C11.9494 22 11.952 22 11.9546 22C11.9572 22 11.9598 22 11.9624 22C11.965 22 11.9676 22 11.9702 22C11.9727 22 11.9753 22 11.9779 22C11.9805 22 11.9831 22 11.9857 22C11.9883 22 11.9909 22 11.9935 22C11.996 22 11.9986 22 12.0012 22C12.0038 22 12.0064 22 12.009 22C12.0115 22 12.0141 22 12.0167 22C12.0193 22 12.0219 22 12.0245 22C12.027 22 12.0296 22 12.0322 22C12.0348 22 12.0374 22 12.0399 22C12.0425 22 12.0451 22 12.0477 22C12.0503 22 12.0528 22 12.0554 22C12.058 22 12.0606 22 12.0631 22C12.0657 22 12.0683 22 12.0709 22C12.0734 22 12.076 22 12.0786 22C12.0811 22 12.0837 22 12.0863 22C12.0888 22 12.0914 22 12.094 22C12.0965 22 12.0991 22 12.1017 22C12.1042 22 12.1068 22 12.1094 22C12.1119 22 12.1145 22 12.1171 22C12.1196 22 12.1222 22 12.1247 22C12.1273 22 12.1299 22 12.1324 22C12.135 22 12.1375 22 12.1401 22C12.1426 22 12.1452 22 12.1478 22C12.1503 22 12.1529 22 12.1554 22C12.158 22 12.1605 22 12.1631 22C12.1656 22 12.1682 22 12.1707 22C12.1733 22 12.1758 22 12.1783 22C12.1809 22 12.1834 22 12.186 22C12.1885 22 12.1911 22 12.1936 22C12.1961 22 12.1987 22 12.2012 22C12.2037 22 12.2063 22 12.2088 22C12.2114 22 12.2139 22 12.2164 22C12.219 22 12.2215 22 12.224 22C12.2265 22 12.2291 22 12.2316 22C12.2341 22 12.2367 22 12.2392 22C12.2417 22 12.2442 22 12.2467 22C12.2493 22 12.2518 22 12.2543 22C12.2568 22 12.2593 22 12.2619 22C12.2644 22 12.2669 22 12.2694 22C12.2719 22 12.2744 22 12.2769 22C12.2795 22 12.282 22 12.2845 22C12.287 22 12.2895 22 12.292 22C12.2945 22 12.297 22 12.2995 22C12.302 22 12.3045 22 12.307 22C12.3095 22 12.312 22 12.3145 22C12.317 22 12.3195 22 12.322 22C12.3245 22 12.327 22 12.3294 22C12.3319 22 12.3344 22 12.3369 22C12.3394 22 12.3419 22 12.3444 22C12.3468 22 12.3493 22 12.3518 22C12.3543 22 12.3568 22 12.3592 22C12.3617 22 12.3642 22 12.3667 22C12.3691 22 12.3716 22 12.3741 22C12.3765 22 12.379 22 12.3815 22C12.3839 22 12.3864 22 12.3889 22C12.3913 22 12.3938 22 12.3963 22C12.3987 22 12.4012 22 12.4036 22C12.4061 22 12.4085 22 12.411 22C12.4134 22 12.4159 22 12.4183 22C12.4208 22 12.4232 22 12.4257 22C12.4281 22 12.4306 22 12.433 22C12.4354 22 12.4379 22 12.4403 22C12.4427 22 12.4452 22 12.4476 22C12.45 22 12.4525 22 12.4549 22C12.4573 22 12.4598 22 12.4622 22C12.4646 22 12.467 22 12.4695 22C12.4719 22 12.4743 22 12.4767 22C12.4791 22 12.4815 22 12.4839 22C12.4864 22 12.4888 22 12.4912 22C12.4936 22 12.496 22 12.4984 22C12.5008 22 12.5032 22 12.5056 22C12.508 22 12.5104 22 12.5128 22C12.5152 22 12.5176 22 12.52 22C12.5224 22 12.5248 22 12.5271 22C12.5295 22 12.5319 22 12.5343 22C12.5367 22 12.5391 22 12.5414 22C12.5438 22 12.5462 22 12.5486 22C12.5509 22 12.5533 22 12.5557 22C12.558 22 12.5604 22 12.5628 22C12.5651 22 12.5675 22 12.5699 22C12.5722 22 12.5746 22 12.5769 22C12.5793 22 12.5816 22 12.584 22C12.5863 22 12.5887 22 12.591 22C12.5934 22 12.5957 22 12.5981 22C12.6004 22 12.6027 22 12.6051 22C12.6074 22 12.6097 22 12.6121 22C12.6144 22 12.6167 22 12.6191 22C12.6214 22 12.6237 22 12.626 22C12.6283 22 12.6307 22 12.633 22C12.6353 22 12.6376 22 12.6399 22C12.6422 22 12.6445 22 12.6468 22C12.6491 22 12.6514 22 12.6537 22C12.656 22 12.6583 22 12.6606 22C12.6629 22 12.6652 22 12.6675 22C12.6698 22 12.6721 22 12.6744 22C12.6767 22 12.6789 22 12.6812 22C12.6835 22 12.6858 22 12.688 22C12.6903 22 12.6926 22 12.6949 22C12.6971 22 12.6994 22 12.7016 22C12.7039 22 12.7062 22 12.7084 22C12.7107 22 12.7129 22 12.7152 22C12.7174 22 12.7197 22 12.7219 22C12.7242 22 12.7264 22 12.7287 22C12.7309 22 12.7331 22 12.7354 22C12.7376 22 12.7398 22 12.7421 22C12.7443 22 12.7465 22 12.7487 22C12.751 22 12.7532 22 12.7554 22C12.7576 22 12.7598 22 12.762 22C12.7643 22 12.7665 22 12.7687 22C12.7709 22 12.7731 22 12.7753 22C12.7775 22 12.7797 22 12.7819 22C12.7841 22 12.7862 22 12.7884 22C12.7906 22 12.7928 22 12.795 22C12.7972 22 12.7993 22 12.8015 22C12.8037 22 12.8059 22 12.808 22C12.8102 22 12.8124 22 12.8145 22C12.8167 22 12.8188 22 12.821 22C12.8232 22 12.8253 22 12.8275 22C12.8296 22 12.8318 22 12.8339 22C12.836 22 12.8382 22 12.8403 22C12.8424 22 12.8446 22 12.8467 22C12.8488 22 12.851 22 12.8531 22C12.8552 22 12.8573 22 12.8595 22C12.8616 22 12.8637 22 12.8658 22C12.8679 22 12.87 22 12.8721 22C12.8742 22 12.8763 22 12.8784 22C12.8805 22 12.8826 22 12.8847 22C12.8868 22 12.8889 22 12.891 22C12.893 22 12.8951 22 12.8972 22C12.8993 22 12.9013 22 12.9034 22C12.9055 22 12.9075 22 12.9096 22C12.9117 22 12.9137 22 12.9158 22C12.9178 22 12.9199 22 12.9219 22C12.924 22 12.926 22 12.9281 22C12.9301 22 12.9322 22 12.9342 22C12.9362 22 12.9383 22 12.9403 22C12.9423 22 12.9443 22 12.9464 22C12.9484 22 12.9504 22 12.9524 22C12.9544 22 12.9564 22 12.9584 22C12.9604 22 12.9624 22 12.9644 22C12.9664 22 12.9684 22 12.9704 22C12.9724 22 12.9744 22 12.9764 22C12.9784 22 12.9803 22 12.9823 22C12.9843 22 12.9863 22 12.9882 22C12.9902 22 12.9922 22 12.9941 22C12.9961 22 12.998 22 13 22V19ZM22 13H28V10H22V13ZM20.5 11.5V17H23.5V11.5H20.5ZM20.5 17V22H23.5V17H20.5ZM26.4393 14.4393C26.0196 14.8591 25.0837 15.1864 23.9336 15.3597C23.4108 15.4384 22.9264 15.4739 22.5717 15.4894C22.3955 15.4971 22.2542 15.4997 22.1596 15.5004C22.1124 15.5008 22.0771 15.5007 22.0551 15.5006C22.0442 15.5005 22.0365 15.5004 22.0324 15.5003C22.0304 15.5003 22.0293 15.5003 22.029 15.5003C22.0289 15.5003 22.029 15.5003 22.0293 15.5003C22.0295 15.5003 22.0297 15.5003 22.03 15.5003C22.0302 15.5003 22.0304 15.5003 22.0305 15.5003C22.0308 15.5003 22.0311 15.5003 22 17C21.9689 18.4997 21.9693 18.4997 21.9696 18.4997C21.9697 18.4997 21.9701 18.4997 21.9703 18.4997C21.9709 18.4997 21.9714 18.4997 21.9721 18.4997C21.9734 18.4998 21.9749 18.4998 21.9767 18.4998C21.9802 18.4999 21.9847 18.5 21.9901 18.5C22.001 18.5002 22.0156 18.5004 22.0337 18.5005C22.0699 18.5007 22.1203 18.5008 22.1833 18.5004C22.3093 18.4994 22.4865 18.496 22.7024 18.4865C23.1318 18.4678 23.726 18.4248 24.3805 18.3262C25.5851 18.1447 27.3993 17.722 28.5607 16.5607L26.4393 14.4393ZM26.5 11.5V13.5H29.5V11.5H26.5ZM28 13.5C26.5 13.5 26.5 13.4998 26.5 13.4995C26.5 13.4995 26.5 13.4992 26.5 13.4991C26.5 13.4988 26.5 13.4985 26.5 13.4983C26.5 13.4978 26.5 13.4974 26.5 13.4971C26.5 13.4965 26.5 13.4962 26.5 13.4963C26.5 13.4964 26.5 13.4978 26.5 13.5005C26.4999 13.5058 26.4998 13.516 26.4994 13.5306C26.4988 13.5597 26.4973 13.6055 26.4943 13.6633C26.4881 13.7813 26.4758 13.9379 26.4526 14.1004C26.4285 14.2688 26.3977 14.4072 26.366 14.5022C26.3257 14.6231 26.324 14.5547 26.4393 14.4393L28.5607 16.5607C28.926 16.1953 29.1118 15.7519 29.2121 15.4509C29.321 15.1241 29.384 14.7937 29.4224 14.5246C29.4617 14.2496 29.4807 13.9999 29.4901 13.821C29.4949 13.7304 29.4973 13.6551 29.4986 13.6003C29.4993 13.5728 29.4996 13.5503 29.4998 13.5335C29.4999 13.525 29.4999 13.5179 29.5 13.5123C29.5 13.5095 29.5 13.5071 29.5 13.505C29.5 13.504 29.5 13.5031 29.5 13.5022C29.5 13.5018 29.5 13.5014 29.5 13.501C29.5 13.5009 29.5 13.5006 29.5 13.5005C29.5 13.5003 29.5 13.5 28 13.5ZM31.5 13V18.5H34.5V13H31.5ZM33 18.5C31.8 19.4 31.8003 19.4004 31.8006 19.4008C31.8007 19.4009 31.801 19.4013 31.8012 19.4016C31.8016 19.4022 31.8021 19.4028 31.8025 19.4034C31.8035 19.4046 31.8045 19.406 31.8057 19.4075C31.8079 19.4105 31.8106 19.414 31.8136 19.418C31.8197 19.4259 31.8274 19.4358 31.8365 19.4475C31.8547 19.4708 31.8791 19.5013 31.9093 19.538C31.9695 19.6114 32.0537 19.7102 32.1599 19.8261C32.3706 20.056 32.6767 20.3623 33.063 20.6713C33.8048 21.2648 35.0079 22 36.5 22V19C35.9921 19 35.4452 18.7352 34.937 18.3287C34.6983 18.1377 34.5044 17.944 34.3714 17.7989C34.3057 17.7273 34.257 17.6698 34.2274 17.6338C34.2127 17.6159 34.2029 17.6035 34.1982 17.5975C34.1958 17.5945 34.1948 17.5931 34.1951 17.5935C34.1952 17.5937 34.1957 17.5943 34.1965 17.5954C34.1969 17.5959 34.1974 17.5966 34.198 17.5973C34.1983 17.5977 34.1986 17.5981 34.1989 17.5986C34.1991 17.5988 34.1994 17.5992 34.1995 17.5993C34.1997 17.5996 34.2 17.6 33 18.5ZM36.5 22C37.9921 22 39.1952 21.2648 39.937 20.6713C40.3233 20.3623 40.6294 20.056 40.8401 19.8261C40.9463 19.7102 41.0305 19.6114 41.0907 19.538C41.1209 19.5013 41.1453 19.4708 41.1635 19.4475C41.1726 19.4358 41.1803 19.4259 41.1864 19.418C41.1894 19.414 41.1921 19.4105 41.1943 19.4075C41.1955 19.406 41.1965 19.4046 41.1975 19.4034C41.1979 19.4028 41.1984 19.4022 41.1988 19.4016C41.199 19.4013 41.1993 19.4009 41.1994 19.4008C41.1997 19.4004 41.2 19.4 40 18.5C38.8 17.6 38.8003 17.5996 38.8005 17.5993C38.8006 17.5992 38.8009 17.5988 38.8011 17.5986C38.8014 17.5981 38.8017 17.5977 38.802 17.5973C38.8026 17.5966 38.8031 17.5959 38.8035 17.5954C38.8043 17.5943 38.8048 17.5937 38.8049 17.5935C38.8052 17.5931 38.8042 17.5945 38.8018 17.5975C38.7971 17.6035 38.7873 17.6159 38.7726 17.6338C38.743 17.6698 38.6943 17.7273 38.6286 17.7989C38.4956 17.944 38.3017 18.1377 38.063 18.3287C37.5548 18.7352 37.0079 19 36.5 19V22ZM41.5 18.5V16H38.5V18.5H41.5ZM40 14.5H37V17.5H40V14.5ZM33 13C33.9325 14.1749 33.9323 14.1751 33.9321 14.1753C33.932 14.1753 33.9318 14.1755 33.9317 14.1756C33.9314 14.1758 33.9312 14.176 33.931 14.1761C33.9306 14.1765 33.9303 14.1767 33.9301 14.1769C33.9297 14.1772 33.9297 14.1771 33.9302 14.1768C33.9311 14.176 33.9338 14.1739 33.9381 14.1706C33.9467 14.164 33.9618 14.1524 33.983 14.1366C34.0253 14.1049 34.0912 14.0567 34.1765 13.9973C34.3486 13.8777 34.5923 13.7184 34.8757 13.5607C35.496 13.2154 36.0918 13 36.5 13V10C35.2981 10 34.1438 10.5346 33.4167 10.9393C33.0263 11.1566 32.6969 11.3723 32.4644 11.5339C32.3474 11.6152 32.253 11.6842 32.1857 11.7345C32.152 11.7597 32.125 11.7804 32.1051 11.7957C32.0952 11.8034 32.087 11.8097 32.0807 11.8146C32.0776 11.8171 32.0749 11.8192 32.0727 11.821C32.0716 11.8218 32.0706 11.8226 32.0697 11.8233C32.0693 11.8237 32.0689 11.824 32.0685 11.8243C32.0683 11.8244 32.0681 11.8246 32.068 11.8247C32.0677 11.8249 32.0675 11.8251 33 13ZM36.5 13C36.9463 13 37.6844 13.2407 38.4663 13.6078C38.8236 13.7756 39.1386 13.9447 39.3643 14.072C39.4764 14.1353 39.5649 14.1873 39.6235 14.2224C39.6528 14.24 39.6746 14.2532 39.688 14.2615C39.6947 14.2656 39.6994 14.2685 39.7018 14.27C39.7031 14.2708 39.7038 14.2712 39.7039 14.2713C39.7039 14.2713 39.7039 14.2713 39.7037 14.2712C39.7035 14.2711 39.7034 14.271 39.7032 14.2709C39.7031 14.2708 39.703 14.2707 39.7029 14.2707C39.7028 14.2706 39.7026 14.2705 40.5 13C41.2974 11.7295 41.2972 11.7294 41.297 11.7293C41.2969 11.7292 41.2967 11.7291 41.2966 11.729C41.2962 11.7288 41.2959 11.7286 41.2955 11.7283C41.2947 11.7278 41.2937 11.7272 41.2926 11.7265C41.2905 11.7252 41.2877 11.7234 41.2843 11.7214C41.2777 11.7172 41.2687 11.7117 41.2575 11.7048C41.2352 11.6911 41.204 11.6721 41.1648 11.6486C41.0865 11.6017 40.9756 11.5366 40.8386 11.4593C40.5658 11.3053 40.1827 11.0994 39.7413 10.8922C38.9258 10.5093 37.6638 10 36.5 10V13Z" fill="#FEF7ED"/>
<path d="M68 12.5V67H17V24.5M68 12.5L58 2M68 12.5H58V2M58 2H17V7M17 7H49V24.5H17M17 7H2V24.5H17M26.5 31V63H58V31H26.5Z" stroke="#484846" stroke-width="3" stroke-linejoin="round"/>
<path d="M40.5 51.5C40.0683 50.246 41.0348 49.5 42 49.5C42.4589 49.5 43.8773 50.5 43.5 51.5C43.1227 52.5 40.9589 52.8333 40.5 51.5Z" fill="#484846"/>
</svg>
