<svg width="60" height="69" viewBox="0 0 60 69" fill="none" xmlns="http://www.w3.org/2000/svg">
<path d="M5.47058 43.3082L9.97058 38.8082H46.4706V8.30823H9.97058L15.4706 1.80823H52.4706V32.8082H57.9706V60.3082L47.9706 66.8082H1.97058V63.3082L5.47058 60.3082H46.9706V43.3082H5.47058Z" fill="#BFBFC0"/>
<path d="M9.97058 38.8082V8.80823H46.4706V38.8082H9.97058Z" fill="#FEF7ED"/>
<path d="M4.97058 59.8082V44.3082H46.4706V59.8082H4.97058Z" fill="#FEF7ED"/>
<path d="M15.4706 32.3082V15.3082H39.9706V32.3082H15.4706Z" fill="#21AD9E"/>
<path d="M4.85943 43.8082L9.73705 39.0928M4.85943 43.8082L47.1323 43.8082M4.85943 43.8082L4.85943 60.2294M9.73705 39.0928L9.73705 8.20118M9.73705 39.0928L46.3194 39.0928M47.1323 43.8082V60.2294L4.85943 60.2294M47.1323 43.8082L58.4705 32.5894M4.85943 60.2294L1.60767 63.4812L1.60767 66.733H48.9705L58.4705 60.2294L58.4705 32.5894M58.4705 32.5894L52.8229 32.5894M52.8229 1.69765L15.4276 1.69766L9.73705 8.20118M52.8229 1.69765L46.3194 8.20117M52.8229 1.69765V32.5894M9.73705 8.20118L46.3194 8.20117M46.3194 39.0928L46.3194 8.20117M46.3194 39.0928L52.8229 32.5894M8.92412 54.5388L10.55 54.5388L12.1759 54.5388M26.8088 50.4741L37.3771 50.4741M42.2547 50.4741H37.3771M37.3771 50.4741L37.3771 54.5388M15.4276 14.7047L15.4276 32.5894L39.8159 32.5894V14.7047L15.4276 14.7047Z" stroke="#484846" stroke-width="3" stroke-linecap="round" stroke-linejoin="round"/>
</svg>
