<svg width="71" height="66" viewBox="0 0 71 66" fill="none" xmlns="http://www.w3.org/2000/svg">
<path d="M69 64.5L17.5 64V43H2.5V7.5H17.5V2H55L69 17.5V64.5Z" fill="#FEF7ED"/>
<path d="M17.5001 43.5V64.5H69.5001V17M17.5001 43.5H36.0001L36 37M17.5001 43.5H2.00006V7.5H17.5001M69.5001 17L55.0001 2M69.5001 17H59.5M55.0001 2H17.5001V7.5M55.0001 2V13.5M17.5001 7.5H36.0001V23M36 37L36.0001 23M36 37H60.5M36.0001 23H41.5M36.0001 27.5H41.5M36 18.5H41.5M36.0001 41.5H60.5M25 50H60.5M36 32.5H60.5M25 46H60.5M55.0001 13.5V17H59.5M55.0001 13.5H47V28H59.5V17" stroke="#484846" stroke-width="3" stroke-linecap="round" stroke-linejoin="round"/>
<path d="M5 16.5H15.5M19.5 29L28.9999 37.5H33M19.5 29H9.5M19.5 29C19.5 29 28.1561 29.0317 30 23.5C31 20.5 30.5 16.5 30.5 16.5H15.5M15.5 16.5L9.5 29M5 37.5L9.5 29" stroke="#21AD9E" stroke-width="4" stroke-linecap="round" stroke-linejoin="round"/>
</svg>
