<svg width="79" height="68" viewBox="0 0 79 68" fill="none" xmlns="http://www.w3.org/2000/svg">
<path d="M77.1694 6.17157L71.6694 3.17157L71.1694 60.6716H27.1694L28.6694 66.1716H71.6694L77.1694 61.1716V6.17157Z" fill="#BFBFC0"/>
<path d="M2.16943 53.1716L25.6694 2.17157H70.1694L44.6694 53.1716H2.16943Z" fill="#B6E1E5"/>
<path d="M27.1694 60.1716V53.1716H45.6694L70.6694 2.17157V60.1716H27.1694Z" fill="#FEF7ED"/>
<path d="M70.287 2L45.0859 53.2153H27.2012M70.287 2H71.1223M70.287 2H63.1694H55.7535H48.3376H40.6694H32.1694H25.5753L2 53.2153H27.2012M71.9129 66.2223L76.7906 61.3447V5.25176L71.1223 2M71.9129 66.2223H28.8271L27.2012 60.5317M71.9129 66.2223L71.1223 60.5317M27.2012 60.5317V53.2153M27.2012 60.5317H71.1223M71.1223 2V60.5317M24.7623 19.0718H52.4023M27.2012 14.1941H54.8412M45.4859 52.4023H66.2223M66.2223 45.8988H48.686M66.2223 39.3953H51.8862M66.2223 32.8918H55.0863M66.2223 26.3882H58.9059M66.2223 19.8847H62.1576" stroke="#484846" stroke-width="3" stroke-linecap="round" stroke-linejoin="round"/>
</svg>
