<svg width="13" height="30" viewBox="0 0 13 30" fill="none" xmlns="http://www.w3.org/2000/svg">
<path d="M6.91234 0.0889679C6.40919 -0.138759 5.81669 0.0845153 5.58897 0.587664C5.36124 1.09081 5.58452 1.68331 6.08766 1.91103L6.91234 0.0889679ZM6.13043 29.9292C6.64362 30.1333 7.2251 29.8828 7.4292 29.3696C7.63331 28.8564 7.38275 28.2749 6.86957 28.0708L6.13043 29.9292ZM6.5 15L6.86957 15.9292L6.89116 15.9206L6.91234 15.911L6.5 15ZM6.5 1C6.08766 1.91103 6.08738 1.9109 6.08712 1.91079C6.08706 1.91076 6.08682 1.91065 6.0867 1.9106C6.08646 1.91049 6.0863 1.91042 6.08623 1.91038C6.08608 1.91031 6.08625 1.91039 6.08675 1.91062C6.08774 1.91107 6.09001 1.91212 6.09351 1.91375C6.10053 1.91702 6.1125 1.92264 6.12908 1.9306C6.16226 1.94652 6.21383 1.97176 6.28117 2.00618C6.41598 2.0751 6.61311 2.18038 6.85168 2.32097C7.33099 2.60343 7.96624 3.02171 8.5968 3.56568C9.88362 4.67578 11 6.17343 11 8H13C13 5.31589 11.3664 3.31354 9.9032 2.05131C9.15876 1.40911 8.41901 0.92315 7.86707 0.597898C7.59002 0.434633 7.35746 0.310203 7.19149 0.225364C7.10843 0.182908 7.04184 0.150257 6.99445 0.127513C6.97075 0.116138 6.95184 0.107231 6.93804 0.100805C6.93114 0.0975919 6.92552 0.0949978 6.92123 0.0930247C6.91908 0.0920381 6.91726 0.0912066 6.91577 0.0905305C6.91503 0.0901924 6.91437 0.0898931 6.9138 0.0896327C6.91352 0.0895026 6.91315 0.0893361 6.913 0.0892712C6.91266 0.0891148 6.91234 0.0889679 6.5 1ZM11 8C11 9.82657 9.88362 11.3242 8.5968 12.4343C7.96624 12.9783 7.33099 13.3966 6.85168 13.679C6.61311 13.8196 6.41598 13.9249 6.28117 13.9938C6.21383 14.0282 6.16226 14.0535 6.12908 14.0694C6.1125 14.0774 6.10053 14.083 6.09351 14.0862C6.09001 14.0879 6.08774 14.0889 6.08675 14.0894C6.08625 14.0896 6.08608 14.0897 6.08623 14.0896C6.0863 14.0896 6.08646 14.0895 6.0867 14.0894C6.08682 14.0894 6.08706 14.0892 6.08712 14.0892C6.08738 14.0891 6.08766 14.089 6.5 15C6.91234 15.911 6.91266 15.9109 6.913 15.9107C6.91315 15.9107 6.91352 15.9105 6.9138 15.9104C6.91437 15.9101 6.91503 15.9098 6.91577 15.9095C6.91726 15.9088 6.91908 15.908 6.92123 15.907C6.92552 15.905 6.93114 15.9024 6.93804 15.8992C6.95184 15.8928 6.97075 15.8839 6.99445 15.8725C7.04184 15.8497 7.10843 15.8171 7.19149 15.7746C7.35746 15.6898 7.59002 15.5654 7.86707 15.4021C8.41901 15.0768 9.15876 14.5909 9.9032 13.9487C11.3664 12.6865 13 10.6841 13 8H11ZM6.5 15C6.13043 14.0708 6.13007 14.0709 6.12968 14.0711C6.12952 14.0712 6.12912 14.0713 6.1288 14.0714C6.12818 14.0717 6.12747 14.072 6.12667 14.0723C6.12508 14.0729 6.12315 14.0737 6.12089 14.0746C6.11638 14.0765 6.11054 14.0788 6.10341 14.0818C6.08917 14.0876 6.06979 14.0957 6.04562 14.106C5.99729 14.1267 5.9297 14.1563 5.8456 14.195C5.67756 14.2723 5.44265 14.3864 5.16306 14.5384C4.60616 14.8411 3.85994 15.3006 3.10896 15.9278C1.61999 17.1714 0 19.1759 0 22H2C2 20.0116 3.13001 18.5161 4.39104 17.4628C5.01506 16.9416 5.64384 16.5534 6.11819 16.2956C6.35423 16.1673 6.54901 16.0729 6.68175 16.0118C6.74804 15.9813 6.79861 15.9592 6.83085 15.9454C6.84696 15.9386 6.85846 15.9338 6.86503 15.9311C6.86832 15.9297 6.87036 15.9289 6.87113 15.9286C6.87152 15.9284 6.87159 15.9284 6.87133 15.9285C6.8712 15.9286 6.87099 15.9286 6.87069 15.9288C6.87055 15.9288 6.87027 15.9289 6.87019 15.929C6.86989 15.9291 6.86957 15.9292 6.5 15ZM0 22C0 24.8241 1.61999 26.8286 3.10896 28.0722C3.85994 28.6994 4.60616 29.1589 5.16306 29.4616C5.44265 29.6136 5.67756 29.7277 5.8456 29.805C5.9297 29.8437 5.99729 29.8733 6.04562 29.894C6.06979 29.9043 6.08917 29.9124 6.10341 29.9182C6.11054 29.9212 6.11638 29.9235 6.12089 29.9254C6.12315 29.9263 6.12508 29.9271 6.12667 29.9277C6.12747 29.928 6.12818 29.9283 6.1288 29.9286C6.12912 29.9287 6.12952 29.9288 6.12968 29.9289C6.13007 29.9291 6.13043 29.9292 6.5 29C6.86957 28.0708 6.86989 28.0709 6.87019 28.071C6.87027 28.0711 6.87055 28.0712 6.87069 28.0712C6.87099 28.0714 6.8712 28.0714 6.87133 28.0715C6.87159 28.0716 6.87152 28.0716 6.87113 28.0714C6.87036 28.0711 6.86832 28.0703 6.86503 28.0689C6.85846 28.0662 6.84696 28.0614 6.83085 28.0546C6.79861 28.0408 6.74804 28.0187 6.68175 27.9882C6.54901 27.9271 6.35423 27.8327 6.11819 27.7044C5.64384 27.4466 5.01506 27.0584 4.39104 26.5372C3.13001 25.4839 2 23.9884 2 22H0Z" fill="#484846"/>
</svg>
