<svg width="1920" height="1080" viewBox="0 0 1920 1080" fill="none" xmlns="http://www.w3.org/2000/svg">
<path d="M0 -6.10352e-05H1920V1080H0V-6.10352e-05Z" fill="#B6E1E5"/>
<path d="M508 243.5H213C213 243.5 187.5 246 187.5 213.5C187.5 172.39 223 178 223 178C223 178 208 148.5 238 127.5C271.088 104.338 291 127.5 291 127.5C291 127.5 291 85.4999 335 85.4999C374.5 85.4999 374.5 127.5 374.5 127.5C374.5 127.5 392 114.269 414 127.5C436 140.731 432.5 158 432.5 158C432.5 158 442 139.5 466.5 148.5C489.579 156.978 484 178 484 178C484 178 517 170 527 198.5C537.526 228.5 508 243.5 508 243.5Z" fill="#FEF7ED"/>
<path d="M1731 385C1731 385 1655.63 366.017 1690 299C1720 240.5 1782 280 1782 280C1782 280 1793 246 1841 257C1882.5 266.51 1878.5 299 1878.5 299C1878.5 299 1901.07 295.282 1920 304V383C1911.25 385.714 1904 385 1904 385H1731Z" fill="#FEF7ED"/>
<path d="M961 394.5H772.501C772.501 394.5 737.501 394.5 745.001 353.5C751.688 316.941 789.501 328 789.501 328C789.501 328 783.411 299.089 806 288C833.5 274.5 845.5 299 845.5 299C845.5 299 847 262 892.5 265C938 268 932.5 311.5 932.5 311.5C932.5 311.5 980.617 293 994 339C1007.38 385 961 394.5 961 394.5Z" fill="#FEF7ED"/>
<path d="M1272 226.5C1272 226.5 1245.02 220.5 1245.5 191.5C1246.12 154 1282 156.5 1282 156.5C1282 156.5 1272 136.5 1302.5 118C1322 106.172 1345.5 118 1345.5 118C1345.5 118 1333.5 83.9615 1374.5 74.5C1420 64 1429 100.5 1429 100.5C1429 100.5 1438 78.5 1469.5 89C1503.21 100.236 1495.5 124 1495.5 124C1495.5 124 1508 107 1536.5 124C1558.61 137.186 1552.5 156.5 1552.5 156.5C1552.5 156.5 1580.5 156.5 1580.5 191.5C1580.5 226.5 1545 226.5 1545 226.5H1272Z" fill="#FEF7ED"/>
<path d="M1444.5 481C1444.5 481 1402 470.5 1410 426.5C1419.84 372.356 1474.5 394.5 1474.5 394.5C1474.5 394.5 1478.64 364.5 1519 370.5C1559.36 376.5 1557 407 1557 407C1557 407 1598.65 400.5 1598.5 444C1598.35 487.5 1561.5 481 1561.5 481H1444.5Z" fill="#FEF7ED"/>
<path d="M739.5 410.5C448.315 420.295 0 536 0 536V1080.5L1920 1080V631C1920 631 1205.71 394.818 739.5 410.5Z" fill="#21AD9E"/>
</svg>
