<svg width="79" height="79" viewBox="0 0 79 79" fill="none" xmlns="http://www.w3.org/2000/svg">
<circle cx="47.7297" cy="30.4056" r="21.5" transform="rotate(45 47.7297 30.4056)" fill="#B6E1E5"/>
<rect x="29.3449" y="42.4264" width="9" height="24" transform="rotate(45 29.3449 42.4264)" fill="#FCD04C"/>
<path d="M29.6785 42.0929C30.4861 43.3376 31.4356 44.517 32.5269 45.6084C33.6182 46.6997 34.7977 47.6492 36.0424 48.4568M29.6785 42.0929C24.2725 33.7614 25.222 22.5077 32.5269 15.2028C40.9232 6.80652 54.5362 6.80652 62.9325 15.2028C71.3288 23.5991 71.3288 37.2121 62.9325 45.6084C55.6276 52.9133 44.3739 53.8628 36.0424 48.4568M29.6785 42.0929L12.0208 59.7505L18.3848 66.1145L36.0424 48.4568" stroke="#484846" stroke-width="3" stroke-linejoin="round"/>
</svg>
